<svg xmlns="http://www.w3.org/2000/svg" width="40" height="40"><defs><clipPath id="a"><path d="M625 1534v-40h40v40zm4-20c0 8.84 7.163 16 16 16s16-7.16 16-16-7.163-16-16-16-16 7.16-16 16z" fill="#fff"/></clipPath></defs><path d="M20 4c8.837 0 16 7.16 16 16s-7.163 16-16 16S4 28.84 4 20 11.163 4 20 4z" fill="#1cd7ad"/><path d="M645 1498c8.837 0 16 7.16 16 16s-7.163 16-16 16-16-7.16-16-16 7.163-16 16-16z" fill="none" stroke-dasharray="0" stroke-linejoin="round" stroke-linecap="round" stroke="#fff" stroke-miterlimit="50" stroke-width="8" clip-path="url(&amp;quot;#a&amp;quot;)" transform="translate(-625 -1494)"/><path d="M25.3 25.3a81.19 81.19 0 0 0-2.033-.1c.678-.59 1.25-1.36 1.671-2.25.206.21.461.36.75.43a1.555 1.555 0 0 0 1.214-.19 1.629 1.629 0 0 0 .536-2.23 1.589 1.589 0 0 0-1.758-.72c.029-.29.048-.59.048-.89 0-.31-.25-.56-.559-.56h-10.34a.56.56 0 0 0-.559.56c0 2.42.975 4.56 2.458 5.85-.741.03-1.429.06-2.03.1-2.091.15-2.699.29-2.699.94 0 .64.608.79 2.699.93 1.418.1 3.301.16 5.301.16 2.001 0 3.883-.06 5.301-.16 2.092-.14 2.699-.29 2.699-.93 0-.65-.607-.79-2.699-.94zm-9.892-5.38h9.183c-.22 3.04-2.195 5.43-4.592 5.43-2.396 0-4.371-2.39-4.591-5.43zm3.555-2.28h.038a.457.457 0 0 0 .422-.61c-.005-.01-.433-1.26.123-2.3.591-.99.783-1.79.572-2.37-.19-.52-.618-.66-.665-.67a.446.446 0 0 0-.557.3c-.071.24.065.49.283.56.002 0 .063.03.097.12.051.14.106.58-.483 1.57l-.022.03a3.85 3.85 0 0 1-.146.24c-.681 1.05-.885 1.89-.606 2.47.224.47.697.63.944.66zM25.568 21h.013a.926.926 0 0 1 1.285.31c.13.22.169.47.11.72a.942.942 0 0 1-.422.58.925.925 0 0 1-1.285-.32c-.01-.01-.027-.02-.04-.04.143-.4.256-.82.339-1.25zm-4.22-3.28h.031a.43.43 0 0 0 .333-.16.435.435 0 0 0 .063-.41c-.002-.01-.242-.72.064-1.29.392-.65.511-1.17.363-1.58-.137-.38-.443-.49-.505-.5a.427.427 0 0 0-.523.28.44.44 0 0 0 .034.33c.053.1.142.17.249.2-.026 0-.045-.01-.046-.01.008.02.069.23-.281.82l-.026.05c-.024.04-.05.08-.078.12-.455.71-.579 1.25-.382 1.66a.87.87 0 0 0 .704.49z" fill="#fff"/></svg>