<svg xmlns="http://www.w3.org/2000/svg" width="40" height="40"><defs><clipPath id="a"><path d="M385 1534v-40h40v40zm4-20c0 8.84 7.163 16 16 16s16-7.16 16-16-7.163-16-16-16-16 7.16-16 16z" fill="#fff"/></clipPath></defs><path d="M20 4c8.837 0 16 7.16 16 16s-7.163 16-16 16S4 28.84 4 20 11.163 4 20 4z" fill="#ff4e50"/><path d="M405 1498c8.837 0 16 7.16 16 16s-7.163 16-16 16-16-7.16-16-16 7.163-16 16-16z" fill="none" stroke-dasharray="0" stroke-linejoin="round" stroke-linecap="round" stroke="#fff" stroke-miterlimit="50" stroke-width="8" clip-path="url(&amp;quot;#a&amp;quot;)" transform="translate(-385 -1494)"/><path d="M26.663 15h-5.676l2.239-2.69c.036.01.067.02.104.02a.666.666 0 1 0-.667-.66c0 .08.02.15.046.22L20.119 15h-.243l-2.589-3.11a.64.64 0 0 0 .045-.22.668.668 0 1 0-1.334 0c0 .36.3.66.667.66.037 0 .069-.01.104-.02L19.008 15h-5.676c-.735 0-1.332.6-1.332 1.33v9.34c0 .74.597 1.33 1.332 1.33h13.331c.736 0 1.333-.59 1.333-1.33v-9.34c0-.73-.597-1.33-1.333-1.33zm-2.666 9.34c0 .73-.597 1.33-1.334 1.33h-7.997c-.736 0-1.334-.6-1.334-1.33v-6.67c0-.74.598-1.34 1.334-1.34h7.997c.737 0 1.334.6 1.334 1.34zm1.964-5.96a.956.956 0 0 1 0-1.91.956.956 0 0 1 0 1.91z" fill="#fff"/></svg>