<svg xmlns="http://www.w3.org/2000/svg" width="41" height="41"><defs><clipPath id="a"><path d="M1104 1534v-41h41v41zm4.94-20.03c0 8.84 7.17 16 16.01 16 8.85 0 16.02-7.16 16.02-16s-7.17-16-16.02-16c-8.84 0-16.01 7.16-16.01 16z" fill="#fff"/></clipPath></defs><path d="M20.95 4.97c8.85 0 16.02 7.16 16.02 16s-7.17 16-16.02 16c-8.84 0-16.01-7.16-16.01-16s7.17-16 16.01-16z" fill="#4e73db"/><path d="M1124.95 1497.97c8.85 0 16.02 7.16 16.02 16s-7.17 16-16.02 16c-8.84 0-16.01-7.16-16.01-16s7.17-16 16.01-16z" fill="none" stroke-dasharray="0" stroke-linejoin="round" stroke-linecap="round" stroke="#fff" stroke-miterlimit="50" stroke-width="8" clip-path="url(&amp;quot;#a&amp;quot;)" transform="translate(-1104 -1493)"/><path d="M27.44 14.53c-.05-.04-.12-.04-.18-.01l-15.68 7.95c-.05.03-.09.09-.08.15 0 .07.05.12.11.14l4.96 1.57c.05.01.11 0 .16-.04l7.54-6.39-5.79 6.8a.14.14 0 0 0-.03.15c.01.05.05.09.1.11l5.83 1.76h.04c.03 0 .06-.01.08-.02.04-.02.07-.06.08-.1l2.91-11.9c.02-.06-.01-.13-.05-.17zm-7.18 12.16l-1.61-.49c-.05-.01-.1 0-.15.03-.04.03-.06.08-.06.13v3.01c0 .07.05.13.12.15.01.01.03.01.04.01.05 0 .11-.03.14-.08l1.61-2.52a.17.17 0 0 0-.09-.24z" fill="#fff"/></svg>