<svg xmlns="http://www.w3.org/2000/svg" width="41" height="41"><defs><clipPath id="a"><path d="M864 1534v-41h41v41zm4.938-20.03c0 8.84 7.17 16 16.015 16s16.016-7.16 16.016-16-7.171-16-16.016-16c-8.845 0-16.015 7.16-16.015 16z" fill="#fff"/></clipPath></defs><path d="M20.953 4.97c8.845 0 16.016 7.16 16.016 16s-7.171 16-16.016 16c-8.845 0-16.015-7.16-16.015-16s7.17-16 16.015-16z" fill="#ffa507"/><path d="M884.953 1497.97c8.845 0 16.016 7.16 16.016 16s-7.171 16-16.016 16c-8.845 0-16.015-7.16-16.015-16s7.17-16 16.015-16z" fill="none" stroke-dasharray="0" stroke-linejoin="round" stroke-linecap="round" stroke="#fff" stroke-miterlimit="50" stroke-width="8" clip-path="url(&amp;quot;#a&amp;quot;)" transform="translate(-864 -1493)"/><path d="M27.22 26.99l-3.065-8.29v-2.44c.578-.2.994-.75.994-1.39v-.4c0-.81-.663-1.47-1.479-1.47h-4.375c-.815 0-1.479.66-1.479 1.47v.4c0 .64.415 1.19.995 1.39v2.44l-3.059 8.27a1.47 1.47 0 0 0 1.37 2.03h8.722c.493 0 .952-.24 1.227-.65.276-.41.329-.92.149-1.36zm-7.431-8.12v-3.02l-.004-.48h-.49c-.276 0-.5-.23-.5-.5v-.4c0-.27.224-.5.5-.5h4.375c.276 0 .501.23.501.5v.4c0 .27-.225.5-.505.5h-.49v3.5l.859 2.32-.034.03c-.639.66-5.308.74-5.308.74h-.045zm2.57 6.68c.482 0 .871.38.871.86a.87.87 0 0 1-1.742 0c0-.48.389-.86.871-.86zm-.742-1.9a.628.628 0 1 1 1.256 0c0 .34-.281.62-.627.62a.626.626 0 0 1-.629-.62zm-2.508 1.46a.5.5 0 0 1 .503-.5.5.5 0 1 1 0 1 .5.5 0 0 1-.503-.5zm2.033-4.37c.375 0 .681-.3.681-.67 0-.38-.306-.68-.681-.68-.377 0-.682.3-.682.68 0 .37.305.67.682.67z" fill="#fff"/></svg>