<svg id="SvgjsSvg1000" xmlns="http://www.w3.org/2000/svg" version="1.1" xmlns:xlink="http://www.w3.org/1999/xlink"
     xmlns:svgjs="http://svgjs.com/svgjs" width="40" height="40">
    <defs id="SvgjsDefs1001">
        <clipPath id="SvgjsClipPath1010">
            <path id="SvgjsPath1009"
                  d="M625 1534L625 1494L665 1494L665 1534ZM629 1514C629 1522.84 636.163 1530 645 1530C653.837 1530 661 1522.84 661 1514C661 1505.16 653.837 1498 645 1498C636.163 1498 629 1505.16 629 1514Z "
                  fill="#ffffff"></path>
        </clipPath>
    </defs>
    <path id="SvgjsPath1007"
          d="M645 1498C653.837 1498 661 1505.16 661 1514C661 1522.84 653.837 1530 645 1530C636.163 1530 629 1522.84 629 1514C629 1505.16 636.163 1498 645 1498Z "
          fill="#1cd7ad" transform="matrix(1,0,0,1,-625,-1494)"></path>
    <path id="SvgjsPath1008"
          d="M645 1498C653.837 1498 661 1505.16 661 1514C661 1522.84 653.837 1530 645 1530C636.163 1530 629 1522.84 629 1514C629 1505.16 636.163 1498 645 1498Z "
          fill-opacity="0" fill="#ffffff" stroke-dasharray="0" stroke-linejoin="round" stroke-linecap="round"
          stroke-opacity="1" stroke="#ffffff" stroke-miterlimit="50" stroke-width="8"
          clip-path="url(&quot;#SvgjsClipPath1010&quot;)" transform="matrix(1,0,0,1,-625,-1494)"></path>
    <path id="SvgjsPath1011"
          d="M650.3 1519.3C649.699 1519.26 649.01 1519.23 648.2669999999999 1519.2C648.9449999999999 1518.6100000000001 649.5169999999999 1517.8400000000001 649.938 1516.95C650.144 1517.16 650.399 1517.31 650.688 1517.38C650.8149999999999 1517.41 650.943 1517.43 651.0699999999999 1517.43C651.361 1517.43 651.6479999999999 1517.3500000000001 651.9019999999999 1517.19C652.2689999999999 1516.96 652.526 1516.6100000000001 652.627 1516.19C652.728 1515.76 652.661 1515.3300000000002 652.438 1514.96C652.064 1514.3400000000001 651.343 1514.07 650.68 1514.24C650.709 1513.95 650.728 1513.65 650.728 1513.35C650.728 1513.04 650.478 1512.79 650.169 1512.79L639.829 1512.79C639.521 1512.79 639.27 1513.04 639.27 1513.35C639.27 1515.77 640.245 1517.9099999999999 641.728 1519.1999999999998C640.987 1519.2299999999998 640.299 1519.2599999999998 639.698 1519.2999999999997C637.607 1519.4499999999998 636.999 1519.5899999999997 636.999 1520.2399999999998C636.999 1520.8799999999999 637.607 1521.0299999999997 639.698 1521.1699999999998C641.116 1521.2699999999998 642.999 1521.33 644.999 1521.33C647 1521.33 648.8820000000001 1521.27 650.3000000000001 1521.1699999999998C652.392 1521.0299999999997 652.999 1520.8799999999999 652.999 1520.2399999999998C652.999 1519.5899999999997 652.392 1519.4499999999998 650.3000000000001 1519.2999999999997ZM640.408 1513.92L649.591 1513.92C649.371 1516.96 647.396 1519.3500000000001 644.999 1519.3500000000001C642.6030000000001 1519.3500000000001 640.628 1516.96 640.408 1513.92ZM643.963 1511.64L644.001 1511.64C644.1379999999999 1511.64 644.271 1511.5700000000002 644.356 1511.46C644.45 1511.3400000000001 644.475 1511.18 644.423 1511.03C644.418 1511.02 643.99 1509.77 644.546 1508.73C645.1370000000001 1507.74 645.3290000000001 1506.94 645.118 1506.3600000000001C644.928 1505.8400000000001 644.5 1505.7 644.4530000000001 1505.69C644.219 1505.6200000000001 643.965 1505.75 643.8960000000001 1505.99C643.825 1506.23 643.9610000000001 1506.48 644.1790000000001 1506.55C644.181 1506.55 644.2420000000001 1506.58 644.2760000000001 1506.6699999999998C644.3270000000001 1506.81 644.3820000000001 1507.2499999999998 643.7930000000001 1508.2399999999998L643.7710000000001 1508.2699999999998C643.7260000000001 1508.3499999999997 643.6780000000001 1508.4299999999998 643.6250000000001 1508.5099999999998C642.9440000000001 1509.5599999999997 642.7400000000001 1510.3999999999999 643.0190000000001 1510.9799999999998C643.2430000000002 1511.4499999999998 643.7160000000001 1511.61 643.9630000000001 1511.6399999999999ZM650.568 1515C650.572 1515 650.577 1515 650.581 1515C651.0210000000001 1514.72 651.597 1514.87 651.866 1515.31C651.996 1515.53 652.035 1515.78 651.976 1516.03C651.917 1516.27 651.767 1516.48 651.554 1516.61C651.3399999999999 1516.74 651.0889999999999 1516.78 650.847 1516.7199999999998C650.6039999999999 1516.6599999999999 650.399 1516.5099999999998 650.269 1516.2899999999997C650.259 1516.2799999999997 650.242 1516.2699999999998 650.229 1516.2499999999998C650.3720000000001 1515.8499999999997 650.485 1515.4299999999998 650.5680000000001 1514.9999999999998ZM646.348 1511.72L646.3789999999999 1511.72C646.5079999999999 1511.72 646.632 1511.66 646.7119999999999 1511.56C646.8009999999999 1511.44 646.8249999999999 1511.29 646.7749999999999 1511.1499999999999C646.7729999999999 1511.1399999999999 646.5329999999999 1510.4299999999998 646.8389999999998 1509.86C647.2309999999999 1509.2099999999998 647.3499999999998 1508.6899999999998 647.2019999999999 1508.28C647.0649999999999 1507.8999999999999 646.7589999999999 1507.79 646.6969999999999 1507.78C646.4789999999999 1507.71 646.2379999999999 1507.85 646.1739999999999 1508.06C646.1419999999998 1508.1699999999998 646.1539999999999 1508.29 646.2079999999999 1508.3899999999999C646.2609999999999 1508.4899999999998 646.3499999999999 1508.56 646.4569999999999 1508.59C646.4309999999999 1508.59 646.4119999999999 1508.58 646.4109999999998 1508.58C646.4189999999999 1508.6 646.4799999999998 1508.81 646.1299999999999 1509.3999999999999L646.1039999999999 1509.4499999999998C646.0799999999999 1509.4899999999998 646.054 1509.5299999999997 646.026 1509.5699999999997C645.5709999999999 1510.2799999999997 645.447 1510.8199999999997 645.644 1511.2299999999998C645.799 1511.5599999999997 646.115 1511.6999999999998 646.348 1511.7199999999998Z "
          fill="#ffffff" transform="matrix(1,0,0,1,-625,-1494)"></path>
</svg>