<svg id="SvgjsSvg1026" xmlns="http://www.w3.org/2000/svg" version="1.1" xmlns:xlink="http://www.w3.org/1999/xlink" xmlns:svgjs="http://svgjs.com/svgjs" width="40" height="40"><defs id="SvgjsDefs1027"><clipPath id="SvgjsClipPath1031"><path id="SvgjsPath1030" d="M385 1534L385 1494L425 1494L425 1534ZM389 1514C389 1522.84 396.163 1530 405 1530C413.837 1530 421 1522.84 421 1514C421 1505.16 413.837 1498 405 1498C396.163 1498 389 1505.16 389 1514Z " fill="#ffffff"></path></clipPath></defs><path id="SvgjsPath1028" d="M405 1498C413.837 1498 421 1505.16 421 1514C421 1522.84 413.837 1530 405 1530C396.163 1530 389 1522.84 389 1514C389 1505.16 396.163 1498 405 1498Z " fill="#ff4e50" transform="matrix(1,0,0,1,-385,-1494)"></path><path id="SvgjsPath1029" d="M405 1498C413.837 1498 421 1505.16 421 1514C421 1522.84 413.837 1530 405 1530C396.163 1530 389 1522.84 389 1514C389 1505.16 396.163 1498 405 1498Z " fill-opacity="0" fill="#ffffff" stroke-dasharray="0" stroke-linejoin="round" stroke-linecap="round" stroke-opacity="1" stroke="#ffffff" stroke-miterlimit="50" stroke-width="8" clip-path="url(&quot;#SvgjsClipPath1031&quot;)" transform="matrix(1,0,0,1,-385,-1494)"></path><path id="SvgjsPath1032" d="M411.663 1509L405.987 1509L408.226 1506.31C408.262 1506.32 408.293 1506.33 408.33 1506.33C408.699 1506.33 408.99699999999996 1506.03 408.99699999999996 1505.6699999999998C408.99699999999996 1505.3 408.69899999999996 1504.9999999999998 408.33 1504.9999999999998C407.96299999999997 1504.9999999999998 407.663 1505.2999999999997 407.663 1505.6699999999998C407.663 1505.7499999999998 407.683 1505.82 407.709 1505.8899999999999L405.119 1508.9999999999998L404.87600000000003 1508.9999999999998L402.28700000000003 1505.8899999999999C402.312 1505.82 402.33200000000005 1505.7499999999998 402.33200000000005 1505.6699999999998C402.33200000000005 1505.3 402.03400000000005 1504.9999999999998 401.6650000000001 1504.9999999999998C401.29800000000006 1504.9999999999998 400.9980000000001 1505.2999999999997 400.9980000000001 1505.6699999999998C400.9980000000001 1506.0299999999997 401.2980000000001 1506.33 401.6650000000001 1506.33C401.70200000000006 1506.33 401.7340000000001 1506.32 401.76900000000006 1506.31L404.00800000000004 1509L398.33200000000005 1509C397.59700000000004 1509 397.00000000000006 1509.6 397.00000000000006 1510.33L397.00000000000006 1519.6699999999998C397.00000000000006 1520.4099999999999 397.59700000000004 1520.9999999999998 398.33200000000005 1520.9999999999998L411.66300000000007 1520.9999999999998C412.39900000000006 1520.9999999999998 412.9960000000001 1520.4099999999999 412.9960000000001 1519.6699999999998L412.9960000000001 1510.33C412.9960000000001 1509.6 412.3990000000001 1509 411.66300000000007 1509ZM408.997 1518.34C408.997 1519.07 408.40000000000003 1519.6699999999998 407.663 1519.6699999999998L399.666 1519.6699999999998C398.93 1519.6699999999998 398.332 1519.07 398.332 1518.34L398.332 1511.6699999999998C398.332 1510.9299999999998 398.93 1510.33 399.666 1510.33L407.663 1510.33C408.40000000000003 1510.33 408.997 1510.9299999999998 408.997 1511.6699999999998ZM410.961 1512.38C410.435 1512.38 410.009 1511.95 410.009 1511.42C410.009 1510.9 410.435 1510.47 410.961 1510.47C411.486 1510.47 411.91200000000003 1510.9 411.91200000000003 1511.42C411.91200000000003 1511.95 411.48600000000005 1512.38 410.961 1512.38Z " fill="#ffffff" transform="matrix(1,0,0,1,-385,-1494)"></path></svg>